<svg xmlns="http://www.w3.org/2000/svg" xmlns:xlink="http://www.w3.org/1999/xlink" version="1.1" x="0px" y="0px" viewBox="0 0 359.5 294.5" enable-background="new 0 0 359.5 294.5" xml:space="preserve" style="fill: rgb(0, 0, 0);" width="359.5"  height="294.5" >
<g id="__id190_s817ukj5p9">
	<polygon id="__id191_s817ukj5p9" points="335.7,147.2 355.8,150.3 334.5,152.3 359.5,157 354.3,159.7 345.2,161.6    336.2,163.1 334.4,165.5 340.7,169.5 332.2,170.3 359.3,180.5 352.8,182 326.2,176.6 331.8,181.3 344.5,189.1 332.1,187.2    333,190.7 339.4,196.9 345.7,203.5 342.5,205.4 320,196.1 323.7,201.4 316.7,200.2 340.1,219.1 329.5,215.6 323.5,215 334.8,227.4    332.3,229.6 328.7,230.8 316.5,224.3 321.6,233 310.8,227 311.9,232.1 307.6,231.9 297.4,225.1 296.9,228.7 300.2,236.7 301.6,243    291.7,235.2 302.1,253.4 292.1,245.1 290.9,248.5 290.9,253.7 290.9,259.2 290.2,263.9 283.1,258.3 278.6,256.6 271,249    265.5,244.7 269,257.3 273.6,273 269.9,272.6 258.6,255.2 259.7,264.8 255.3,261.9 248.4,252.2 253.8,274 251.5,276.6 243.8,263.4    247.8,284.7 239.9,270.1 239.2,277.8 237.6,283.5 230.7,269.3 226.7,264.9 227.9,282.6 226.9,292.1 222.6,286.8 217,273.6    216.7,289 211.4,275 210.3,287.8 205.4,272.9 203.4,280.6 199.9,276 197.2,277.8 194.3,277.2 190.9,268.1 188.4,273.6 186,291.3    182.9,286.1 179.9,275.7 176.7,294.5 173.7,292 171.4,273.7 167.5,291.8 165.1,282.1 163.6,264.1 159,283.9 155,292.5 152.2,289.7    150.9,276.8 149.1,269.8 142.8,290.3 141.6,279.6 138.1,281.8 136.7,273.9 131.9,282.1 133.1,264.4 130.9,261.9 120.4,289.4    119.1,282.7 118.7,273.6 121.4,255.8 115.4,265.2 105.2,284.7 102.5,283 101.4,277 107.8,253.6 99,267 100.6,256.3 94.9,261.9    84.8,275.7 94.6,249.8 89.3,253.7 78.4,267.5 85.1,249.7 75.4,260.3 72.8,258.7 65.6,264.1 66.9,256.5 62.3,257.7 59.4,256.2    58.9,251.7 52,255.4 62.6,237.5 65,230.2 61.9,229.6 55,233.1 44.8,239.5 57.3,222.6 37.1,238.2 34.9,236 35.3,231.3 51.9,213.1    36.8,222 29.3,224 23.4,224.4 39.7,208.9 32.8,210.2 20.7,214.5 27.5,206.6 32.2,200.4 23.7,201.9 22.4,199.2 13.8,200 16.7,195.2    24,188.7 18.2,188 26.5,181.8 17.4,181.9 6.6,182.1 24.7,173.8 6.2,175.6 3.2,173 8.5,168.7 6.6,165.8 27,159.9 20.6,158    1.1,156.9 24.5,152.4 13.3,150.1 14.7,147.2 16.5,144.3 25.9,142 3.3,137.6 0,134 17,133 6.5,128.4 11.3,126.2 24.1,125.9    21,122.4 6.2,115.4 22.8,117.1 3.4,107.7 23.1,111.3 11.1,103.6 23.7,105.4 23.5,102.2 27.2,100.8 19.8,93.8 33.7,97.8 38.2,97.3    30.6,89.6 17.4,77.7 20.8,76.1 43.5,88.1 42.3,83.9 32.2,72.6 37.5,72.9 52.1,81.4 49.2,75.3 50,72.3 47.9,66.4 48.3,62.7    60.1,70.7 46.9,52.4 59.4,61.9 59.3,57.4 66.1,61.1 54.4,41.9 69.8,56.8 63.5,43.6 65.4,41.1 73.7,47.8 69.5,36.2 84.5,54.3    70.6,26.1 78.2,32.7 89.2,46.1 91.3,44.3 95.9,47.2 92.2,33.5 100.4,44.1 100.4,37.5 98.8,26.8 101,24.3 103.5,22.5 111.8,35.9    116.2,40 113.7,24.2 121.4,38.4 121.5,29.6 126.4,36.3 125.8,24.1 127,17.6 134.4,34.9 136.2,30.8 136.4,19 137.8,11.1 141,11.5    143.3,7.4 146,4.4 151.1,18.7 153.1,11.8 157.2,21.1 160,20.8 162.6,17.8 166.1,26.9 168.1,13.6 171.4,22.4 173.9,11.3 176.9,12.9    179.9,23.9 182.6,24.5 186.1,0.5 188.2,24.9 192.3,0.5 194.9,7.8 197.6,11.7 200.1,17 204.9,0.2 208.1,0 208.2,21.2 210,28.5    216,9.4 219,9.8 222.4,8.4 223.3,18.9 228.7,8.6 232.7,5.2 234.4,11.1 231.1,34.3 239.2,16.4 245.2,7.2 245.4,16.9 251,10    246.3,32.2 251.8,25.6 253.3,29.8 252.2,40 264.6,18.2 256.1,44.6 258.9,44.9 274.6,19.2 275.3,25 267,46.9 273,41.7 279.1,36.9    288.2,27.6 280.6,45.6 283.5,46.4 284.8,49.6 286.4,52.2 286.4,57 305,37.1 294.8,55.2 303.5,49.1 297.9,60.3 297.6,64.9 306.7,59    319.3,50.2 304.7,69.4 304.1,73.8 320.2,62.7 314.4,71.9 316.1,74.2 332.1,64.9 328.6,71.7 314.7,85.9 320.4,85.2 333,80    332.9,83.8 343.7,80.8 334.7,89.7 331.7,94.8 326.2,100.8 336.2,99 324.6,107.4 350.3,99.4 348.4,103.7 331.1,113.3 348.3,110.4    358.6,110.5 341.9,118.6 356,118.1 348,123.2 335.7,128.6 341.1,130.4 338.9,133.6 331.8,137.1 336,139.3 357.7,140.7 358.6,143.9     " style="" fill="#008b8b"></polygon>
</g>
<g id="__id192_s817ukj5p9">
	<g id="__id193_s817ukj5p9">
		
			<ellipse id="__id194_s817ukj5p9" transform="matrix(0.9988 -4.976964e-002 4.976964e-002 0.9988 -6.2424 3.6299)" cx="69.8" cy="127.2" rx="62.3" ry="80.6" style="fill: inherit;"></ellipse>
		
			<ellipse id="__id195_s817ukj5p9" transform="matrix(0.9976 6.979960e-002 -6.979960e-002 0.9976 9.5711 -19.5864)" cx="285.1" cy="127.2" rx="62.3" ry="80.6" style="fill: inherit;"></ellipse>
	</g>
	<g id="__id196_s817ukj5p9">
		
			<ellipse id="__id197_s817ukj5p9" transform="matrix(0.9988 -4.976964e-002 4.976964e-002 0.9988 -6.2424 3.6299)" cx="69.8" cy="127.2" rx="62.3" ry="80.6" style="" fill="#ffffff"></ellipse>
		
			<ellipse id="__id198_s817ukj5p9" transform="matrix(0.9976 6.979960e-002 -6.979960e-002 0.9976 9.5711 -19.5864)" cx="285.1" cy="127.2" rx="62.3" ry="80.6" style="" fill="#ffffff"></ellipse>
	</g>
</g>
<g id="__id199_s817ukj5p9">
	<path id="__id200_s817ukj5p9" opacity="0.1" d="M73.1,197.7c-32.7,1.6-61-29.6-65.7-70.9c0,1.1,0,2.3,0.1,3.5c2.2,44.4,31.9,79.1,66.2,77.4   c34.4-1.7,60.4-39.1,58.2-83.6c-0.1-2.2-0.3-4.4-0.5-6.5C132.2,160.5,106.6,196,73.1,197.7z" style="fill: inherit;"></path>
	<path id="__id201_s817ukj5p9" opacity="0.1" d="M280,197.6c-32.6-2.3-57.1-36.7-56.7-78.2c-0.1,1.1-0.2,2.3-0.3,3.4   c-3.1,44.4,22.2,82.3,56.5,84.7c34.3,2.4,64.7-31.6,67.8-76c0.2-2.2,0.2-4.4,0.2-6.5C343,167.7,313.4,199.9,280,197.6z" style="fill: inherit;"></path>
</g>
<g id="__id202_s817ukj5p9">
	<g id="__id203_s817ukj5p9">
		
			<ellipse id="__id204_s817ukj5p9" transform="matrix(1 8.694527e-003 -8.694527e-003 1 1.0901 -0.7708)" cx="89.2" cy="125" rx="17.1" ry="22.2" style="" fill="#494744"></ellipse>
		
			<ellipse id="__id205_s817ukj5p9" transform="matrix(1 8.694527e-003 -8.694527e-003 1 1.0964 -2.2364)" cx="257.8" cy="125" rx="17.1" ry="22.2" style="" fill="#494744"></ellipse>
	</g>
	<g id="__id206_s817ukj5p9">
		
			<ellipse id="__id207_s817ukj5p9" transform="matrix(1 8.694527e-003 -8.694527e-003 1 1.0901 -0.7708)" cx="89.2" cy="125" rx="17.1" ry="22.2" style="" fill="#494744"></ellipse>
		
			<ellipse id="__id208_s817ukj5p9" transform="matrix(1 8.694527e-003 -8.694527e-003 1 1.0964 -2.2364)" cx="257.8" cy="125" rx="17.1" ry="22.2" style="" fill="#494744"></ellipse>
	</g>
</g>
<g id="__id209_s817ukj5p9">
	<polygon id="__id210_s817ukj5p9" points="153.4,173.9 166.9,160.9 165.1,178.5  " style="" fill="#ffffff"></polygon>
	<polygon id="__id211_s817ukj5p9" points="192.5,179.4 194.4,160.8 204.4,175.4  " style="" fill="#ffffff"></polygon>
</g>
<g id="__id212_s817ukj5p9">
	<path id="__id213_s817ukj5p9" d="M179.8,178.4c-14.7,0-27.9-4.8-36.7-12.2c7.9,9.3,21.4,15.4,36.7,15.4s28.8-6.1,36.7-15.4   C207.6,173.6,194.5,178.4,179.8,178.4z" style="" fill="#494744"></path>
</g>
</svg>