<?xml version="1.0" standalone="no"?>
<!DOCTYPE svg PUBLIC "-//W3C//DTD SVG 20010904//EN"
 "http://www.w3.org/TR/2001/REC-SVG-20010904/DTD/svg10.dtd">
<svg version="1.0" xmlns="http://www.w3.org/2000/svg"
 width="940.000000pt" height="1280.000000pt" viewBox="0 0 940.000000 1280.000000"
 preserveAspectRatio="xMidYMid meet">
<metadata>
Created by potrace 1.15, written by Peter Selinger 2001-2017
</metadata>
<g transform="translate(0.000000,1280.000000) scale(0.100000,-0.100000)"
fill="#FFFFFF" stroke="none">
<path d="M5985 11629 c-477 -45 -962 -238 -1420 -564 -782 -557 -1568 -1567
-2095 -2695 -550 -1176 -874 -2433 -961 -3730 -16 -234 -16 -762 -1 -925 68
-706 294 -1327 650 -1780 76 -97 289 -307 392 -386 367 -284 726 -409 1170
-409 461 1 889 166 1320 510 144 115 421 395 564 571 360 443 708 1017 1026
1688 771 1629 1202 3127 1312 4561 16 213 16 842 0 1030 -48 552 -139 936
-302 1275 -302 624 -888 926 -1655 854z m513 -508 c267 -78 493 -290 642 -604
185 -386 214 -810 109 -1582 -107 -794 -400 -2093 -705 -3130 -344 -1169 -726
-2138 -1103 -2797 -492 -861 -993 -1282 -1591 -1339 -323 -31 -582 67 -764
289 -151 185 -224 395 -242 693 -40 690 397 2834 931 4564 414 1343 791 2241
1233 2938 339 537 715 884 1057 978 97 27 325 21 433 -10z"/>
</g>
</svg>
